<svg width="54" height="27" viewBox="0 0 54 27" fill="none" xmlns="http://www.w3.org/2000/svg">
<g clip-path="url(#clip0_323_859)">
<path d="M9.048 26.3031C7.8 26.3031 6.664 26.0631 5.64 25.5831C4.632 25.1031 3.76 24.4551 3.024 23.6391C2.304 22.8071 1.744 21.8791 1.344 20.8551C0.944 19.8151 0.744 18.7511 0.744 17.6631C0.744 16.5271 0.952 15.4471 1.368 14.4231C1.8 13.3831 2.384 12.4631 3.12 11.6631C3.872 10.8471 4.752 10.2071 5.76 9.7431C6.784 9.2631 7.904 9.0231 9.12 9.0231C10.352 9.0231 11.472 9.2711 12.48 9.76711C13.504 10.2631 14.376 10.9271 15.096 11.7591C15.816 12.5911 16.376 13.5191 16.776 14.5431C17.176 15.5671 17.376 16.6231 17.376 17.7111C17.376 18.8311 17.168 19.9111 16.752 20.9511C16.336 21.9751 15.752 22.8951 15 23.7111C14.264 24.5111 13.384 25.1431 12.36 25.6071C11.352 26.0711 10.248 26.3031 9.048 26.3031ZM4.104 17.6631C4.104 18.3991 4.216 19.1111 4.44 19.7991C4.664 20.4871 4.984 21.1031 5.4 21.6471C5.832 22.1751 6.352 22.5991 6.96 22.9191C7.584 23.2231 8.288 23.3751 9.072 23.3751C9.872 23.3751 10.584 23.2151 11.208 22.8951C11.832 22.5591 12.352 22.1191 12.768 21.5751C13.184 21.0151 13.496 20.3991 13.704 19.7271C13.928 19.0391 14.04 18.3511 14.04 17.6631C14.04 16.9271 13.92 16.2231 13.68 15.5511C13.456 14.8631 13.128 14.2551 12.696 13.7271C12.28 13.1831 11.76 12.7591 11.136 12.4551C10.528 12.1351 9.84 11.9751 9.072 11.9751C8.256 11.9751 7.536 12.1431 6.912 12.4791C6.304 12.7991 5.792 13.2311 5.376 13.7751C4.96 14.3191 4.64 14.9271 4.416 15.5991C4.208 16.2711 4.104 16.9591 4.104 17.6631ZM28.1966 26.1831L24.5246 20.7591L22.8206 22.4391V26.1831H19.6046V8.66311H22.8206V19.2711L27.8846 13.6311H31.2926L26.6126 18.9591L31.6286 26.1831H28.1966ZM40.4754 16.3911C39.4994 16.3911 38.6274 16.5831 37.8594 16.9671C37.0914 17.3351 36.5394 17.8711 36.2034 18.5751V26.1831H32.9874V13.6071H35.9394V16.2951C36.3874 15.4311 36.9554 14.7511 37.6434 14.2551C38.3314 13.7591 39.0594 13.4871 39.8274 13.4391C40.0034 13.4391 40.1394 13.4391 40.2354 13.4391C40.3314 13.4391 40.4114 13.4471 40.4754 13.4631V16.3911ZM41.3344 22.4631C41.3344 21.6471 41.5584 20.9351 42.0064 20.3271C42.4704 19.7031 43.1104 19.2231 43.9264 18.8871C44.7424 18.5511 45.6784 18.3831 46.7344 18.3831C47.2624 18.3831 47.7984 18.4231 48.3424 18.5031C48.8864 18.5831 49.3584 18.7111 49.7584 18.8871V18.2151C49.7584 17.4151 49.5184 16.7991 49.0384 16.3671C48.5744 15.9351 47.8784 15.7191 46.9504 15.7191C46.2624 15.7191 45.6064 15.8391 44.9824 16.0791C44.3584 16.3191 43.7024 16.6711 43.0144 17.1351L41.9824 15.0231C42.8144 14.4791 43.6624 14.0711 44.5264 13.7991C45.4064 13.5271 46.3264 13.3911 47.2864 13.3911C49.0784 13.3911 50.4704 13.8391 51.4624 14.7351C52.4704 15.6311 52.9744 16.9111 52.9744 18.5751V22.5831C52.9744 22.9191 53.0304 23.1591 53.1424 23.3031C53.2704 23.4471 53.4704 23.5351 53.7424 23.5671V26.1831C53.4544 26.2311 53.1904 26.2711 52.9504 26.3031C52.7264 26.3351 52.5344 26.3511 52.3744 26.3511C51.7344 26.3511 51.2464 26.2071 50.9104 25.9191C50.5904 25.6311 50.3904 25.2791 50.3104 24.8631L50.2384 24.2151C49.6944 24.9191 49.0144 25.4631 48.1984 25.8471C47.3824 26.2311 46.5504 26.4231 45.7024 26.4231C44.8704 26.4231 44.1184 26.2551 43.4464 25.9191C42.7904 25.5671 42.2704 25.0951 41.8864 24.5031C41.5184 23.8951 41.3344 23.2151 41.3344 22.4631ZM49.1584 23.1111C49.3344 22.9191 49.4784 22.7271 49.5904 22.5351C49.7024 22.3431 49.7584 22.1671 49.7584 22.0071V20.7351C49.3744 20.5751 48.9584 20.4551 48.5104 20.3751C48.0624 20.2791 47.6384 20.2311 47.2384 20.2311C46.4064 20.2311 45.7184 20.4151 45.1744 20.7831C44.6464 21.1351 44.3824 21.6071 44.3824 22.1991C44.3824 22.5191 44.4704 22.8231 44.6464 23.1111C44.8224 23.3991 45.0784 23.6311 45.4144 23.8071C45.7504 23.9831 46.1504 24.0711 46.6144 24.0711C47.0944 24.0711 47.5664 23.9831 48.0304 23.8071C48.4944 23.6151 48.8704 23.3831 49.1584 23.1111Z" fill="white"/>
<path d="M29 4.18311C27.7293 2.67288 27.1874 0.136878 27.1874 0.136878L26.8506 0.172235C26.8506 0.172235 26.5139 1.68311 26.8936 3.34421C28 8.18311 32.0068 10.5911 32.0068 10.5911L32.5876 10.7654L33.5348 10.6L34.1157 11.2799C34.1157 11.2799 34.3281 11.3336 34.6034 11.1938C34.8788 11.0541 34.9234 10.8502 34.9234 10.8502L34.1632 9.97493L34.4067 9.17361L34.5 8.18311C34.5 8.18311 30.4945 5.95925 29 4.18311Z" fill="white"/>
</g>
<defs>
<clipPath id="clip0_323_859">
<rect width="54" height="27" fill="white"/>
</clipPath>
</defs>
</svg>
